<?xml version="1.0" encoding="UTF-8" standalone="no"?>
<svg width="34px" height="34px" viewBox="0 0 34 34" version="1.1" xmlns="http://www.w3.org/2000/svg" xmlns:xlink="http://www.w3.org/1999/xlink">
    <!-- Generator: sketchtool 39.1 (31720) - http://www.bohemiancoding.com/sketch -->
    <title>8478688D-F288-4B81-9DCA-ED33273E13A9</title>
    <desc>Created with sketchtool.</desc>
    <defs></defs>
    <g id="Symbols" stroke="none" stroke-width="1" fill="none" fill-rule="evenodd">
        <g id="UI:-Header" transform="translate(-20.000000, -13.000000)" fill="#FFFFFF">
            <path d="M53.4833347,29.814424 C53.4833347,39.1057597 46.0445219,46.6288481 36.8572703,46.6288481 C27.6700187,46.6288481 20.2312059,39.1057597 20.2312059,29.814424 C20.2312059,20.5230884 27.6700187,13 36.8572703,13 C46.0445219,13.03215 53.4833347,20.5552383 53.4833347,29.814424 L53.4833347,29.814424 Z M27.3521207,31.9684707 L36.9208499,24.027433 L46.5213689,31.9684707 L47.92012,30.0073237 L36.9208499,20.780288 L25.8262104,30.0073237 L27.3521207,31.9684707 L27.3521207,31.9684707 Z M29.6091963,38.8485601 L35.1088314,38.8485601 L35.1088314,31.5505214 L38.6692888,31.5505214 L38.6692888,38.8485601 L44.2325034,38.8485601 L44.2325034,31.0682721 L36.8890601,25.0562314 L29.6409861,31.0682721 L29.6409861,38.8485601 L29.6091963,38.8485601 L29.6091963,38.8485601 Z M35.7128376,38.8485601 L38.0652826,38.8485601 L38.0652826,33.4795184 L35.7128376,32.1935204 L35.7128376,38.8485601 L35.7128376,38.8485601 Z" id="Joyful-Home_Logo_All-White-Outlined"></path>
        </g>
    </g>
</svg>