<?xml version="1.0" encoding="utf-8"?>
<!-- Generator: Adobe Illustrator 20.1.0, SVG Export Plug-In . SVG Version: 6.00 Build 0)  -->
<svg version="1.1" id="Layer_1" xmlns="http://www.w3.org/2000/svg" xmlns:xlink="http://www.w3.org/1999/xlink" x="0px" y="0px"
	 viewBox="0 0 648.2 105" style="enable-background:new 0 0 648.2 105;" xml:space="preserve">
<style type="text/css">
	.st0{fill:#1d881d;}
	.text1{fill: #fff;}
	.text2{fill: #fff;}
</style>
<g>
	<g class="text1">
		<path d="M25.2,31.3V87c0,2.5-0.3,4.8-1,7c-0.6,2.2-1.7,4.1-3.1,5.7s-3.3,2.9-5.6,3.9c-2.3,1-5.2,1.4-8.6,1.4
			c-1.3,0-2.5-0.1-3.6-0.3c-1.1-0.2-2.3-0.4-3.4-0.7l0.5-7.7c0.1-0.7,0.3-1.2,0.8-1.5c0.4-0.3,1.3-0.4,2.6-0.4s2.4-0.1,3.2-0.3
			c0.8-0.2,1.5-0.6,2-1.2c0.5-0.6,0.9-1.3,1.1-2.3c0.2-0.9,0.3-2.1,0.3-3.5V31.3H25.2z M27,15.8c0,1.2-0.2,2.4-0.7,3.4
			c-0.5,1.1-1.2,2-2,2.8c-0.8,0.8-1.8,1.4-2.9,1.9c-1.1,0.5-2.3,0.7-3.6,0.7c-1.2,0-2.3-0.2-3.4-0.7c-1.1-0.5-2-1.1-2.8-1.9
			c-0.8-0.8-1.5-1.7-1.9-2.8S8.9,17,8.9,15.8c0-1.2,0.2-2.4,0.7-3.5c0.5-1.1,1.1-2,1.9-2.8c0.8-0.8,1.8-1.4,2.8-1.9
			c1.1-0.5,2.2-0.7,3.4-0.7c1.3,0,2.5,0.2,3.6,0.7c1.1,0.5,2.1,1.1,2.9,1.9c0.8,0.8,1.5,1.8,2,2.8C26.7,13.4,27,14.5,27,15.8z"/>
		<path d="M62.4,30.4c4.1,0,7.8,0.7,11.2,2c3.4,1.3,6.2,3.2,8.6,5.6c2.4,2.4,4.3,5.4,5.6,8.8c1.3,3.5,2,7.4,2,11.7
			c0,4.3-0.7,8.3-2,11.7c-1.3,3.5-3.2,6.4-5.6,8.9c-2.4,2.4-5.3,4.3-8.6,5.6c-3.4,1.3-7.1,2-11.2,2c-4.1,0-7.9-0.7-11.3-2
			c-3.4-1.3-6.3-3.2-8.7-5.6c-2.4-2.4-4.3-5.4-5.6-8.9c-1.3-3.5-2-7.4-2-11.7c0-4.3,0.7-8.2,2-11.7c1.3-3.5,3.2-6.4,5.6-8.8
			c2.4-2.4,5.3-4.3,8.7-5.6C54.5,31.1,58.2,30.4,62.4,30.4z M62.4,75.7c4.2,0,7.3-1.4,9.3-4.3c2-2.9,3-7.2,3-12.9
			c0-5.7-1-9.9-3-12.8c-2-2.9-5.1-4.3-9.3-4.3c-4.3,0-7.4,1.4-9.4,4.3c-2,2.9-3,7.1-3,12.8c0,5.7,1,10,3,12.9S58.1,75.7,62.4,75.7z"
			/>
		<path d="M147.6,31.3l-29.5,69.3c-0.5,1-1,1.7-1.7,2.2c-0.7,0.5-1.7,0.7-3.1,0.7h-10.9l10.3-22L90.9,31.3h12.8
			c1.2,0,2.1,0.3,2.7,0.8c0.6,0.5,1.1,1.1,1.4,1.9l10.4,26.1c0.4,1,0.7,2.1,1,3.1c0.3,1,0.6,2.1,0.9,3.1c0.6-2.1,1.4-4.2,2.2-6.3
			l9.6-26.1c0.3-0.8,0.8-1.4,1.5-1.9c0.7-0.5,1.6-0.7,2.4-0.7H147.6z"/>
		<path d="M157.3,85.9V41.8l-4.2-0.7c-1.1-0.2-2-0.6-2.7-1.2c-0.7-0.6-1-1.4-1-2.4v-5.8h8V28c0-3.1,0.5-5.9,1.5-8.5
			c1-2.5,2.4-4.7,4.2-6.4c1.8-1.7,4-3.1,6.6-4.1s5.6-1.4,8.9-1.4c1.3,0,2.5,0.1,3.6,0.2c1.1,0.2,2.3,0.4,3.5,0.7l-0.3,7.2
			c-0.1,1.1-0.5,1.8-1.4,2.1c-0.9,0.3-1.8,0.5-2.9,0.5c-1.5,0-2.8,0.2-4,0.5c-1.2,0.3-2.2,0.9-3,1.6c-0.8,0.8-1.4,1.8-1.9,3.1
			c-0.4,1.3-0.6,2.9-0.6,4.8v3.2H185v10.2h-13.1v44.1H157.3z"/>
		<path d="M239.7,31.3v54.6h-9c-1.9,0-3.1-0.8-3.6-2.5l-1-3.8c-1.1,1.1-2.2,2-3.4,2.9c-1.2,0.9-2.4,1.6-3.7,2.3s-2.8,1.1-4.3,1.5
			c-1.5,0.4-3.2,0.5-5,0.5c-3,0-5.6-0.5-7.9-1.5c-2.3-1-4.2-2.5-5.8-4.3c-1.6-1.8-2.7-4-3.6-6.6c-0.8-2.5-1.2-5.3-1.2-8.4V31.3h14.6
			V66c0,3,0.7,5.4,2.1,7.1c1.4,1.7,3.5,2.5,6.2,2.5c2,0,4-0.5,5.8-1.4c1.8-0.9,3.5-2.1,5.1-3.7V31.3H239.7z"/>
		<path d="M266.5,6.9v79h-14.6v-79H266.5z"/>
	</g>
	<g class="text2">
		<g>
			<path d="M392.7,42.1c2.4-3,5.2-5.3,8.3-7.1c3.1-1.8,6.6-2.6,10.5-2.6c2.9,0,5.4,0.5,7.7,1.4c2.2,0.9,4,2.2,5.5,4
				c1.4,1.7,2.5,3.8,3.3,6.3s1.1,5.2,1.1,8.3v33.7h-5.1V52.2c0-4.9-1.1-8.8-3.4-11.6c-2.3-2.8-5.7-4.2-10.3-4.2
				c-3.4,0-6.6,0.9-9.6,2.6c-3,1.7-5.6,4.2-8,7.3v39.6h-5.1V8.8h5.1V42.1z"/>
			<path d="M466.8,32.3c3.8,0,7.2,0.6,10.1,1.9c3,1.3,5.5,3.1,7.6,5.5c2,2.4,3.6,5.2,4.7,8.6c1.1,3.3,1.6,7.1,1.6,11.2
				c0,4.1-0.5,7.9-1.6,11.2c-1.1,3.3-2.6,6.2-4.7,8.5c-2,2.4-4.6,4.2-7.6,5.5c-3,1.3-6.4,1.9-10.1,1.9c-3.8,0-7.2-0.6-10.1-1.9
				c-3-1.3-5.5-3.1-7.6-5.5c-2.1-2.4-3.6-5.2-4.7-8.5c-1.1-3.3-1.6-7-1.6-11.2c0-4.1,0.5-7.9,1.6-11.2c1.1-3.3,2.6-6.2,4.7-8.6
				c2.1-2.4,4.6-4.2,7.6-5.5C459.7,33,463,32.3,466.8,32.3z M466.8,82.6c3.1,0,5.9-0.5,8.2-1.6c2.3-1.1,4.3-2.6,5.9-4.6
				s2.7-4.4,3.5-7.3c0.8-2.8,1.2-6,1.2-9.6c0-3.5-0.4-6.7-1.2-9.5c-0.8-2.9-2-5.3-3.5-7.3c-1.6-2-3.5-3.6-5.9-4.7
				c-2.4-1.1-5.1-1.6-8.2-1.6c-3.1,0-5.9,0.5-8.2,1.6c-2.3,1.1-4.3,2.7-5.9,4.7c-1.6,2-2.8,4.5-3.6,7.3c-0.8,2.9-1.2,6-1.2,9.5
				c0,3.5,0.4,6.7,1.2,9.6c0.8,2.8,2,5.3,3.6,7.3s3.5,3.6,5.9,4.6C460.9,82.1,463.7,82.6,466.8,82.6z"/>
			<path d="M505.1,85.9V33.2h2.8c0.9,0,1.4,0.4,1.5,1.3l0.5,7.6c2-2.9,4.4-5.3,7-7.1c2.6-1.8,5.6-2.7,9-2.7c3.9,0,6.9,1.1,9.2,3.3
				c2.3,2.2,3.9,5.3,4.7,9.3c0.6-2.2,1.5-4,2.7-5.6c1.1-1.6,2.5-2.9,3.9-3.9c1.5-1,3.1-1.8,4.8-2.3c1.7-0.5,3.5-0.7,5.4-0.7
				c2.6,0,5,0.4,7,1.3c2.1,0.9,3.9,2.1,5.3,3.8c1.4,1.7,2.6,3.8,3.3,6.3c0.8,2.5,1.2,5.3,1.2,8.5v33.7h-5V52.2
				c0-5.2-1.1-9.1-3.3-11.8s-5.4-4.1-9.5-4.1c-1.8,0-3.6,0.3-5.3,1c-1.7,0.7-3.2,1.7-4.5,3c-1.3,1.3-2.3,3-3.1,5
				c-0.8,2-1.1,4.3-1.1,6.9v33.7h-5.1V52.2c0-5.1-1-9-3-11.8c-2-2.7-5-4.1-8.9-4.1c-2.9,0-5.5,0.8-8,2.5c-2.4,1.7-4.6,4-6.5,7v40
				H505.1z"/>
			<path d="M592.2,57.5v1c0,4,0.5,7.4,1.4,10.4c0.9,3,2.2,5.5,3.9,7.6c1.7,2,3.7,3.6,6.1,4.6c2.4,1,5.1,1.5,8.1,1.5
				c2.7,0,4.9-0.3,6.9-0.9s3.6-1.2,4.9-2c1.3-0.7,2.4-1.4,3.2-2c0.8-0.6,1.3-0.9,1.7-0.9c0.5,0,0.8,0.2,1.1,0.5l1.4,1.7
				c-0.8,1.1-2,2-3.4,3c-1.4,0.9-3,1.7-4.7,2.4c-1.7,0.7-3.6,1.2-5.5,1.6c-2,0.4-3.9,0.6-5.9,0.6c-3.6,0-6.9-0.6-9.9-1.9
				c-3-1.3-5.5-3.1-7.6-5.5c-2.1-2.4-3.8-5.3-4.9-8.8c-1.1-3.5-1.7-7.5-1.7-12c0-3.8,0.5-7.3,1.6-10.5c1.1-3.2,2.6-6,4.7-8.3
				c2-2.3,4.5-4.1,7.5-5.4c2.9-1.3,6.3-2,10-2c3,0,5.7,0.5,8.3,1.5c2.5,1,4.8,2.5,6.6,4.5c1.9,2,3.3,4.4,4.4,7.2
				c1.1,2.9,1.6,6.1,1.6,9.9c0,0.8-0.1,1.3-0.3,1.6c-0.2,0.3-0.6,0.4-1.1,0.4H592.2z M627.4,54.2c0-2.8-0.4-5.4-1.2-7.6
				c-0.8-2.2-1.9-4.1-3.4-5.7c-1.4-1.6-3.2-2.7-5.2-3.6c-2-0.8-4.2-1.2-6.6-1.2c-2.7,0-5.2,0.4-7.3,1.3c-2.2,0.8-4,2.1-5.6,3.7
				c-1.6,1.6-2.8,3.5-3.8,5.7s-1.6,4.7-1.9,7.5H627.4z"/>
		</g>
		<g>
			<path d="M636.3,8.9H633v8.9h-1.4V8.9h-3.3V7.7h7.9V8.9z"/>
			<path d="M648.2,7.7v10H647v-7.4c0-0.1,0-0.2,0-0.3c0-0.1,0-0.2,0-0.3l-3.4,6.3c-0.1,0.2-0.3,0.3-0.5,0.3h-0.2
				c-0.2,0-0.4-0.1-0.5-0.3l-3.5-6.3c0,0.2,0,0.5,0,0.7v7.4h-1.2v-10h1c0.1,0,0.2,0,0.3,0c0.1,0,0.1,0.1,0.2,0.2l3.5,6.2
				c0.1,0.1,0.1,0.2,0.2,0.4c0.1,0.1,0.1,0.2,0.2,0.4c0-0.1,0.1-0.3,0.1-0.4c0.1-0.1,0.1-0.2,0.2-0.4l3.4-6.2
				c0.1-0.1,0.1-0.2,0.2-0.2s0.2,0,0.3,0H648.2z"/>
		</g>
	</g>
	<path class="st0" d="M379,52.3c0,28.9-23.4,52.3-52.3,52.3c-28.9,0-52.3-23.4-52.3-52.3S297.8,0,326.7,0C355.6,0,379,23.4,379,52.3
		z M296.8,58.9l30.1-24.7l30.2,24.7l4.4-6.1l-34.6-28.7l-34.9,28.7L296.8,58.9z M303.9,80.4h17.3V57.7h11.2v22.7h17.5V56.1
		l-23.1-18.7l-22.8,18.7V80.4z M323,80.4h7.4V63.7l-7.4-4V80.4z"/>
</g>
</svg>
