<?xml version="1.0" encoding="utf-8"?>
<!-- Generator: Adobe Illustrator 20.1.0, SVG Export Plug-In . SVG Version: 6.00 Build 0)  -->
<svg version="1.1" id="Layer_1" xmlns="http://www.w3.org/2000/svg" xmlns:xlink="http://www.w3.org/1999/xlink" x="0px" y="0px"
	 viewBox="0 0 671 119" style="enable-background:new 0 0 671 119;" xml:space="preserve">
<style type="text/css">
	.st0{fill:#FFFFFF;}
</style>
<g>
	<g>
		<path class="st0" d="M35.3,37.4v55.7c0,2.5-0.3,4.8-1,7c-0.6,2.2-1.7,4.1-3.1,5.7s-3.3,2.9-5.6,3.9s-5.2,1.4-8.6,1.4
			c-1.3,0-2.5-0.1-3.6-0.3s-2.3-0.4-3.4-0.7l0.5-7.7c0.1-0.7,0.3-1.2,0.8-1.5c0.4-0.3,1.3-0.4,2.6-0.4s2.4-0.1,3.2-0.3
			s1.5-0.6,2-1.2c0.5-0.6,0.9-1.3,1.1-2.3c0.2-0.9,0.3-2.1,0.3-3.5V37.4H35.3z M37,21.8c0,1.2-0.2,2.4-0.7,3.4c-0.5,1.1-1.2,2-2,2.8
			s-1.8,1.4-2.9,1.9c-1.1,0.5-2.3,0.7-3.6,0.7c-1.2,0-2.3-0.2-3.4-0.7c-1.1-0.5-2-1.1-2.8-1.9c-0.8-0.8-1.5-1.7-1.9-2.8
			S19,23,19,21.8s0.2-2.4,0.7-3.5s1.1-2,1.9-2.8c0.8-0.8,1.8-1.4,2.8-1.9c1.1-0.5,2.2-0.7,3.4-0.7c1.3,0,2.5,0.2,3.6,0.7
			s2.1,1.1,2.9,1.9c0.8,0.8,1.5,1.8,2,2.8C36.8,19.4,37,20.6,37,21.8z"/>
		<path class="st0" d="M72.4,36.5c4.1,0,7.8,0.7,11.2,2s6.2,3.2,8.6,5.6c2.4,2.4,4.3,5.4,5.6,8.8c1.3,3.5,2,7.4,2,11.7
			s-0.7,8.3-2,11.7c-1.3,3.5-3.2,6.4-5.6,8.9c-2.4,2.4-5.3,4.3-8.6,5.6c-3.4,1.3-7.1,2-11.2,2c-4.1,0-7.9-0.7-11.3-2
			c-3.4-1.3-6.3-3.2-8.7-5.6c-2.4-2.4-4.3-5.4-5.6-8.9s-2-7.4-2-11.7s0.7-8.2,2-11.7s3.2-6.4,5.6-8.8c2.4-2.4,5.3-4.3,8.7-5.6
			C64.5,37.2,68.3,36.5,72.4,36.5z M72.4,81.8c4.2,0,7.3-1.4,9.3-4.3c2-2.9,3-7.2,3-12.9s-1-9.9-3-12.8c-2-2.9-5.1-4.3-9.3-4.3
			c-4.3,0-7.4,1.4-9.4,4.3c-2,2.9-3,7.1-3,12.8s1,10,3,12.9S68.1,81.8,72.4,81.8z"/>
		<path class="st0" d="M157.6,37.4l-29.5,69.3c-0.5,1-1,1.7-1.7,2.2s-1.7,0.7-3.1,0.7h-10.8l10.3-22l-21.9-50.2h12.8
			c1.2,0,2.1,0.3,2.7,0.8c0.6,0.5,1.1,1.1,1.4,1.9l10.4,26.1c0.4,1,0.7,2.1,1,3.1s0.6,2.1,0.9,3.1c0.6-2.1,1.4-4.2,2.2-6.3l9.6-26.1
			c0.3-0.8,0.8-1.4,1.5-1.9s1.6-0.7,2.4-0.7L157.6,37.4L157.6,37.4z"/>
		<path class="st0" d="M167.3,92V47.9l-4.2-0.7c-1.1-0.2-2-0.6-2.7-1.2c-0.7-0.6-1-1.4-1-2.4v-5.8h8v-3.6c0-3.1,0.5-5.9,1.5-8.5
			c1-2.5,2.4-4.7,4.2-6.4c1.8-1.7,4-3.1,6.6-4.1s5.6-1.4,8.9-1.4c1.3,0,2.5,0.1,3.6,0.2c1.1,0.2,2.3,0.4,3.5,0.7l-0.3,7.2
			c-0.1,1.1-0.5,1.8-1.4,2.1s-1.8,0.5-2.9,0.5c-1.5,0-2.8,0.2-4,0.5s-2.2,0.9-3,1.6c-0.8,0.8-1.4,1.8-1.9,3.1
			c-0.4,1.3-0.6,2.9-0.6,4.8v3.2h13.6v10.2h-13.1V92H167.3z"/>
		<path class="st0" d="M249.7,37.4V92h-9c-1.9,0-3.1-0.8-3.6-2.5l-1-3.8c-1.1,1.1-2.2,2-3.4,2.9c-1.2,0.9-2.4,1.6-3.7,2.3
			s-2.8,1.1-4.3,1.5s-3.2,0.5-5,0.5c-3,0-5.6-0.5-7.9-1.5s-4.2-2.5-5.8-4.3c-1.6-1.8-2.7-4-3.6-6.6c-0.8-2.5-1.2-5.3-1.2-8.4V37.4
			h14.6v34.7c0,3,0.7,5.4,2.1,7.1c1.4,1.7,3.5,2.5,6.2,2.5c2,0,4-0.5,5.8-1.4s3.5-2.1,5.1-3.7V37.4H249.7z"/>
		<path class="st0" d="M276.5,13v79h-14.6V13C261.9,13,276.5,13,276.5,13z"/>
	</g>
	<g>
		<g>
			<path class="st0" d="M402.8,48.2c2.4-3,5.2-5.3,8.3-7.1c3.1-1.8,6.6-2.6,10.5-2.6c2.9,0,5.4,0.5,7.7,1.4c2.2,0.9,4,2.2,5.5,4
				c1.4,1.7,2.5,3.8,3.3,6.3s1.1,5.2,1.1,8.3v33.7h-5.1V58.5c0-4.9-1.1-8.8-3.4-11.6c-2.3-2.8-5.7-4.2-10.3-4.2
				c-3.4,0-6.6,0.9-9.6,2.6c-3,1.7-5.6,4.2-8,7.3v39.6h-5.1V15.1h5.1V48.2z"/>
			<path class="st0" d="M476.9,38.4c3.8,0,7.2,0.6,10.1,1.9c3,1.3,5.5,3.1,7.6,5.5c2,2.4,3.6,5.2,4.7,8.6c1.1,3.3,1.6,7.1,1.6,11.2
				c0,4.1-0.5,7.9-1.6,11.2c-1.1,3.3-2.6,6.2-4.7,8.5c-2,2.4-4.6,4.2-7.6,5.5s-6.4,1.9-10.1,1.9c-3.8,0-7.2-0.6-10.1-1.9
				c-3-1.3-5.5-3.1-7.6-5.5s-3.6-5.2-4.7-8.5c-1.1-3.3-1.6-7-1.6-11.2c0-4.1,0.5-7.9,1.6-11.2c1.1-3.3,2.6-6.2,4.7-8.6
				c2.1-2.4,4.6-4.2,7.6-5.5C469.7,39.1,473.1,38.4,476.9,38.4z M476.9,88.7c3.1,0,5.9-0.5,8.2-1.6c2.3-1.1,4.3-2.6,5.9-4.6
				c1.6-2,2.7-4.4,3.5-7.3c0.8-2.8,1.2-6,1.2-9.6c0-3.5-0.4-6.7-1.2-9.5c-0.8-2.9-2-5.3-3.5-7.3c-1.6-2-3.5-3.6-5.9-4.7
				c-2.4-1.1-5.1-1.6-8.2-1.6s-5.9,0.5-8.2,1.6c-2.3,1.1-4.3,2.7-5.9,4.7c-1.6,2-2.8,4.5-3.6,7.3c-0.8,2.9-1.2,6-1.2,9.5
				s0.4,6.7,1.2,9.6c0.8,2.8,2,5.3,3.6,7.3c1.6,2,3.5,3.6,5.9,4.6C471,88.2,473.7,88.7,476.9,88.7z"/>
			<path class="st0" d="M515.1,92V39.3h2.8c0.9,0,1.4,0.4,1.5,1.3l0.5,7.6c2-2.9,4.4-5.3,7-7.1c2.6-1.8,5.6-2.7,9-2.7
				c3.9,0,6.9,1.1,9.2,3.3c2.3,2.2,3.9,5.3,4.7,9.3c0.6-2.2,1.5-4,2.7-5.6c1.1-1.6,2.5-2.9,3.9-3.9c1.5-1,3.1-1.8,4.8-2.3
				s3.5-0.7,5.4-0.7c2.6,0,5,0.4,7,1.3c2.1,0.9,3.9,2.1,5.3,3.8c1.4,1.7,2.6,3.8,3.3,6.3c0.8,2.5,1.2,5.3,1.2,8.5v33.7h-5V58.4
				c0-5.2-1.1-9.1-3.3-11.8c-2.2-2.7-5.4-4.1-9.5-4.1c-1.8,0-3.6,0.3-5.3,1c-1.7,0.7-3.2,1.7-4.5,3c-1.3,1.3-2.3,3-3.1,5
				s-1.1,4.3-1.1,6.9v33.7h-5.1V58.4c0-5.1-1-9-3-11.8c-2-2.7-5-4.1-8.9-4.1c-2.9,0-5.5,0.8-8,2.5c-2.4,1.7-4.6,4-6.5,7v40H515.1z"
				/>
			<path class="st0" d="M602.3,63.5v1c0,4,0.5,7.4,1.4,10.4s2.2,5.5,3.9,7.6c1.7,2,3.7,3.6,6.1,4.6s5.1,1.5,8.1,1.5
				c2.7,0,4.9-0.3,6.9-0.9s3.6-1.2,4.9-2c1.3-0.7,2.4-1.4,3.2-2c0.8-0.6,1.3-0.9,1.7-0.9c0.5,0,0.8,0.2,1.1,0.5L641,85
				c-0.8,1.1-2,2-3.4,3c-1.4,0.9-3,1.7-4.7,2.4s-3.6,1.2-5.5,1.6c-2,0.4-3.9,0.6-5.9,0.6c-3.6,0-6.9-0.6-9.9-1.9
				c-3-1.3-5.5-3.1-7.6-5.5c-2.1-2.4-3.8-5.3-4.9-8.8c-1.1-3.5-1.7-7.5-1.7-12c0-3.8,0.5-7.3,1.6-10.5c1.1-3.2,2.6-6,4.7-8.3
				c2-2.3,4.5-4.1,7.5-5.4c2.9-1.3,6.3-2,10-2c3,0,5.7,0.5,8.3,1.5c2.5,1,4.8,2.5,6.6,4.5c1.9,2,3.3,4.4,4.4,7.2
				c1.1,2.9,1.6,6.1,1.6,9.9c0,0.8-0.1,1.3-0.3,1.6s-0.6,0.4-1.1,0.4h-38.4V63.5z M637.5,60.3c0-2.8-0.4-5.4-1.2-7.6
				c-0.8-2.2-1.9-4.1-3.4-5.7c-1.4-1.6-3.2-2.7-5.2-3.6c-2-0.8-4.2-1.2-6.6-1.2c-2.7,0-5.2,0.4-7.3,1.3c-2.2,0.8-4,2.1-5.6,3.7
				c-1.6,1.6-2.8,3.5-3.8,5.7s-1.6,4.7-1.9,7.5L637.5,60.3L637.5,60.3z"/>
		</g>
		<g>
			<path class="st0" d="M646.3,14.9h-3.2v8.9h-1.4v-8.9h-3.2v-1.1h7.9v1.1H646.3z"/>
			<path class="st0" d="M658.2,13.8v10H657v-7.4c0-0.1,0-0.2,0-0.3c0-0.1,0-0.2,0-0.3l-3.4,6.3c-0.1,0.2-0.3,0.3-0.5,0.3h-0.2
				c-0.2,0-0.4-0.1-0.5-0.3l-3.5-6.3c0,0.2,0,0.5,0,0.7v7.4h-1.2v-10h1c0.1,0,0.2,0,0.3,0s0.1,0.1,0.2,0.2l3.5,6.2
				c0.1,0.1,0.1,0.2,0.2,0.4c0.1,0.1,0.1,0.2,0.2,0.4c0-0.1,0.1-0.3,0.1-0.4c0.1-0.1,0.1-0.2,0.2-0.4l3.4-6.2
				c0.1-0.1,0.1-0.2,0.2-0.2s0.2,0,0.3,0L658.2,13.8L658.2,13.8z"/>
		</g>
	</g>
	<path class="st0" d="M389,58.3c0,28.9-23.4,52.3-52.3,52.3s-52.3-23.4-52.3-52.3S307.8,6,336.7,6C365.6,6.1,389,29.5,389,58.3z
		 M306.8,65l30.1-24.7L367.1,65l4.4-6.1l-34.6-28.7L302,58.9L306.8,65z M313.9,86.4h17.3V63.7h11.2v22.7h17.5V62.2l-23.1-18.7
		L314,62.2v24.2H313.9z M333.1,86.4h7.4V69.7l-7.4-4V86.4z"/>
</g>
</svg>
